<svg xmlns="http://www.w3.org/2000/svg" xmlns:xlink="http://www.w3.org/1999/xlink" width="469" zoomAndPan="magnify" viewBox="0 0 351.75 207.75" height="277" preserveAspectRatio="xMidYMid meet" version="1.0"><defs><clipPath id="882f1e90b9"><path d="M 51 76 L 200 76 L 200 198 L 51 198 Z M 51 76 " clip-rule="nonzero"/></clipPath><clipPath id="5ba5789397"><path d="M 42.046875 126.25 L 78.886719 67.136719 L 208.890625 148.15625 L 172.050781 207.269531 Z M 42.046875 126.25 " clip-rule="nonzero"/></clipPath><clipPath id="9c13dc8a2e"><path d="M 55.125 105.269531 L 65.8125 88.117188 C 73.035156 76.53125 88.28125 72.992188 99.867188 80.210938 L 187.820312 135.023438 C 199.40625 142.246094 202.945312 157.492188 195.722656 169.078125 L 185.035156 186.234375 C 177.8125 197.820312 162.566406 201.359375 150.980469 194.136719 L 63.027344 139.324219 C 51.441406 132.105469 47.902344 116.855469 55.125 105.269531 Z M 55.125 105.269531 " clip-rule="nonzero"/></clipPath><clipPath id="e0156d27ef"><path d="M 0 0 L 149 0 L 149 122 L 0 122 Z M 0 0 " clip-rule="nonzero"/></clipPath><clipPath id="b75b048b61"><path d="M -8.953125 50.25 L 27.886719 -8.863281 L 157.890625 72.15625 L 121.050781 131.269531 Z M -8.953125 50.25 " clip-rule="nonzero"/></clipPath><clipPath id="035c868ffe"><path d="M 4.125 29.269531 L 14.8125 12.117188 C 22.035156 0.53125 37.28125 -3.007812 48.867188 4.210938 L 136.820312 59.023438 C 148.40625 66.246094 151.945312 81.492188 144.722656 93.078125 L 134.035156 110.234375 C 126.8125 121.820312 111.566406 125.359375 99.980469 118.136719 L 12.027344 63.324219 C 0.441406 56.105469 -3.097656 40.855469 4.125 29.269531 Z M 4.125 29.269531 " clip-rule="nonzero"/></clipPath><clipPath id="d7589f0375"><rect x="0" width="149" y="0" height="122"/></clipPath><clipPath id="ea08221c7c"><path d="M 1 86 L 75 86 L 75 136 L 1 136 Z M 1 86 " clip-rule="nonzero"/></clipPath><clipPath id="1d3aae6f74"><path d="M 0.0898438 127.089844 L 6.203125 84.757812 L 76.480469 94.910156 L 70.367188 137.242188 Z M 0.0898438 127.089844 " clip-rule="nonzero"/></clipPath><clipPath id="db1c745c0c"><path d="M 1.910156 114.488281 L 4.382812 97.363281 C 4.867188 94.019531 6.65625 91.003906 9.363281 88.984375 C 12.066406 86.960938 15.464844 86.097656 18.808594 86.578125 L 63.800781 93.078125 C 67.144531 93.558594 70.15625 95.351562 72.179688 98.054688 C 74.203125 100.761719 75.066406 104.160156 74.582031 107.5 L 72.109375 124.625 C 71.628906 127.96875 69.835938 130.984375 67.132812 133.003906 C 64.425781 135.027344 61.027344 135.890625 57.6875 135.410156 L 12.695312 128.910156 C 9.351562 128.429688 6.335938 126.636719 4.316406 123.933594 C 2.292969 121.226562 1.429688 117.828125 1.910156 114.488281 Z M 1.910156 114.488281 " clip-rule="nonzero"/></clipPath><clipPath id="4bd42ede39"><path d="M 0.285156 0.0546875 L 74 0.0546875 L 74 49.917969 L 0.285156 49.917969 Z M 0.285156 0.0546875 " clip-rule="nonzero"/></clipPath><clipPath id="ab14b963d7"><path d="M -0.910156 41.089844 L 5.203125 -1.242188 L 75.480469 8.910156 L 69.367188 51.242188 Z M -0.910156 41.089844 " clip-rule="nonzero"/></clipPath><clipPath id="b759d7ecc3"><path d="M 0.910156 28.488281 L 3.382812 11.363281 C 3.867188 8.019531 5.65625 5.003906 8.363281 2.984375 C 11.066406 0.960938 14.464844 0.0976562 17.808594 0.578125 L 62.800781 7.078125 C 66.144531 7.558594 69.15625 9.351562 71.179688 12.054688 C 73.203125 14.761719 74.066406 18.160156 73.582031 21.5 L 71.109375 38.625 C 70.628906 41.96875 68.835938 44.984375 66.132812 47.003906 C 63.425781 49.027344 60.027344 49.890625 56.6875 49.410156 L 11.695312 42.910156 C 8.351562 42.429688 5.335938 40.636719 3.316406 37.933594 C 1.292969 35.226562 0.429688 31.828125 0.910156 28.488281 Z M 0.910156 28.488281 " clip-rule="nonzero"/></clipPath><clipPath id="4aca0e7f5a"><rect x="0" width="74" y="0" height="50"/></clipPath><clipPath id="1e1e353c6a"><path d="M 35 31 L 104 31 L 104 114 L 35 114 Z M 35 31 " clip-rule="nonzero"/></clipPath><clipPath id="bc5a5f883b"><path d="M 31.332031 47.160156 L 76.753906 27.097656 L 108.023438 97.886719 L 62.605469 117.953125 Z M 31.332031 47.160156 " clip-rule="nonzero"/></clipPath><clipPath id="2483224b9c"><path d="M 42.980469 42.015625 L 65.105469 32.242188 C 68.195312 30.878906 71.699219 30.796875 74.847656 32.015625 C 78 33.234375 80.535156 35.65625 81.898438 38.746094 L 102.875 86.234375 C 104.242188 89.324219 104.320312 92.828125 103.101562 95.976562 C 101.882812 99.125 99.460938 101.664062 96.371094 103.027344 L 74.25 112.800781 C 71.160156 114.164062 67.65625 114.246094 64.507812 113.027344 C 61.355469 111.808594 58.820312 109.386719 57.457031 106.296875 L 36.480469 58.808594 C 35.113281 55.71875 35.03125 52.214844 36.253906 49.066406 C 37.472656 45.914062 39.890625 43.378906 42.980469 42.015625 Z M 42.980469 42.015625 " clip-rule="nonzero"/></clipPath><clipPath id="ad7b2ebff4"><path d="M 0 0 L 69 0 L 69 83 L 0 83 Z M 0 0 " clip-rule="nonzero"/></clipPath><clipPath id="68f91db5ad"><path d="M -3.667969 16.160156 L 41.753906 -3.902344 L 73.023438 66.886719 L 27.605469 86.953125 Z M -3.667969 16.160156 " clip-rule="nonzero"/></clipPath><clipPath id="e0ad23ab5e"><path d="M 7.980469 11.015625 L 30.105469 1.242188 C 33.195312 -0.121094 36.699219 -0.203125 39.847656 1.015625 C 43 2.234375 45.535156 4.65625 46.898438 7.746094 L 67.875 55.234375 C 69.242188 58.324219 69.320312 61.828125 68.101562 64.976562 C 66.882812 68.125 64.460938 70.664062 61.371094 72.027344 L 39.25 81.800781 C 36.160156 83.164062 32.65625 83.246094 29.507812 82.027344 C 26.355469 80.808594 23.820312 78.386719 22.457031 75.296875 L 1.480469 27.808594 C 0.113281 24.71875 0.03125 21.214844 1.253906 18.066406 C 2.472656 14.914062 4.890625 12.378906 7.980469 11.015625 Z M 7.980469 11.015625 " clip-rule="nonzero"/></clipPath><clipPath id="c76a6efdda"><rect x="0" width="69" y="0" height="83"/></clipPath><clipPath id="ce95903f0f"><path d="M 51 85 L 105 85 L 105 136 L 51 136 Z M 51 85 " clip-rule="nonzero"/></clipPath><clipPath id="2204cbed5c"><path d="M 43.527344 121.878906 L 92.332031 76.734375 L 112.324219 98.351562 L 63.523438 143.492188 Z M 43.527344 121.878906 " clip-rule="nonzero"/></clipPath><clipPath id="6fbdbf6e26"><path d="M 67.910156 99.324219 C 54.445312 111.777344 48.003906 126.714844 53.527344 132.683594 C 59.046875 138.652344 74.4375 133.394531 87.90625 120.9375 C 101.371094 108.480469 107.8125 93.546875 102.292969 87.578125 C 96.769531 81.609375 81.378906 86.867188 67.910156 99.324219 Z M 67.910156 99.324219 " clip-rule="nonzero"/></clipPath><clipPath id="195dfdb7ec"><path d="M 0 0 L 54 0 L 54 51 L 0 51 Z M 0 0 " clip-rule="nonzero"/></clipPath><clipPath id="ea2a8c4aab"><path d="M -7.472656 36.878906 L 41.332031 -8.265625 L 61.324219 13.351562 L 12.523438 58.492188 Z M -7.472656 36.878906 " clip-rule="nonzero"/></clipPath><clipPath id="c2ba407cbf"><path d="M 16.910156 14.324219 C 3.445312 26.777344 -2.996094 41.714844 2.527344 47.683594 C 8.046875 53.652344 23.4375 48.394531 36.90625 35.9375 C 50.371094 23.480469 56.8125 8.546875 51.292969 2.578125 C 45.769531 -3.390625 30.378906 1.867188 16.910156 14.324219 Z M 16.910156 14.324219 " clip-rule="nonzero"/></clipPath><clipPath id="c13bd92577"><rect x="0" width="54" y="0" height="51"/></clipPath><clipPath id="b3a7b354fa"><path d="M 110.289062 0 L 350.953125 0 L 350.953125 204.003906 L 110.289062 204.003906 Z M 110.289062 0 " clip-rule="nonzero"/></clipPath><clipPath id="2b7d780b2d"><path d="M 158.230469 0 L 302.925781 0 C 315.640625 0 327.835938 5.050781 336.828125 14.042969 C 345.816406 23.03125 350.867188 35.226562 350.867188 47.941406 L 350.867188 156.0625 C 350.867188 168.777344 345.816406 180.972656 336.828125 189.964844 C 327.835938 198.953125 315.640625 204.003906 302.925781 204.003906 L 158.230469 204.003906 C 145.515625 204.003906 133.324219 198.953125 124.332031 189.964844 C 115.339844 180.972656 110.289062 168.777344 110.289062 156.0625 L 110.289062 47.941406 C 110.289062 35.226562 115.339844 23.03125 124.332031 14.042969 C 133.324219 5.050781 145.515625 0 158.230469 0 Z M 158.230469 0 " clip-rule="nonzero"/></clipPath><clipPath id="3ed5487d0c"><path d="M 0.289062 0 L 240.953125 0 L 240.953125 204.003906 L 0.289062 204.003906 Z M 0.289062 0 " clip-rule="nonzero"/></clipPath><clipPath id="f71f962ce3"><path d="M 48.230469 0 L 192.925781 0 C 205.640625 0 217.835938 5.050781 226.828125 14.042969 C 235.816406 23.03125 240.867188 35.226562 240.867188 47.941406 L 240.867188 156.0625 C 240.867188 168.777344 235.816406 180.972656 226.828125 189.964844 C 217.835938 198.953125 205.640625 204.003906 192.925781 204.003906 L 48.230469 204.003906 C 35.515625 204.003906 23.324219 198.953125 14.332031 189.964844 C 5.339844 180.972656 0.289062 168.777344 0.289062 156.0625 L 0.289062 47.941406 C 0.289062 35.226562 5.339844 23.03125 14.332031 14.042969 C 23.324219 5.050781 35.515625 0 48.230469 0 Z M 48.230469 0 " clip-rule="nonzero"/></clipPath><clipPath id="d8753ce06e"><rect x="0" width="241" y="0" height="205"/></clipPath><clipPath id="96f7500e37"><path d="M 125.425781 20.964844 L 333.464844 20.964844 L 333.464844 138.792969 L 125.425781 138.792969 Z M 125.425781 20.964844 " clip-rule="nonzero"/></clipPath><clipPath id="3186b0e856"><path d="M 169.621094 20.964844 L 289.21875 20.964844 C 300.9375 20.964844 312.179688 25.621094 320.46875 33.910156 C 328.757812 42.199219 333.414062 53.441406 333.414062 65.164062 L 333.414062 94.597656 C 333.414062 106.320312 328.757812 117.5625 320.46875 125.847656 C 312.179688 134.136719 300.9375 138.792969 289.21875 138.792969 L 169.621094 138.792969 C 157.902344 138.792969 146.660156 134.136719 138.371094 125.847656 C 130.082031 117.5625 125.425781 106.320312 125.425781 94.597656 L 125.425781 65.164062 C 125.425781 53.441406 130.082031 42.199219 138.371094 33.910156 C 146.660156 25.621094 157.902344 20.964844 169.621094 20.964844 Z M 169.621094 20.964844 " clip-rule="nonzero"/></clipPath><clipPath id="4860796800"><path d="M 0.425781 0.964844 L 208.464844 0.964844 L 208.464844 118.792969 L 0.425781 118.792969 Z M 0.425781 0.964844 " clip-rule="nonzero"/></clipPath><clipPath id="953c6e89b4"><path d="M 44.621094 0.964844 L 164.21875 0.964844 C 175.9375 0.964844 187.179688 5.621094 195.46875 13.910156 C 203.757812 22.199219 208.414062 33.441406 208.414062 45.164062 L 208.414062 74.597656 C 208.414062 86.320312 203.757812 97.5625 195.46875 105.847656 C 187.179688 114.136719 175.9375 118.792969 164.21875 118.792969 L 44.621094 118.792969 C 32.902344 118.792969 21.660156 114.136719 13.371094 105.847656 C 5.082031 97.5625 0.425781 86.320312 0.425781 74.597656 L 0.425781 45.164062 C 0.425781 33.441406 5.082031 22.199219 13.371094 13.910156 C 21.660156 5.621094 32.902344 0.964844 44.621094 0.964844 Z M 44.621094 0.964844 " clip-rule="nonzero"/></clipPath><clipPath id="9178dc58b6"><rect x="0" width="209" y="0" height="119"/></clipPath><clipPath id="6523c67bfa"><path d="M 234.71875 43.507812 L 304.90625 43.507812 L 304.90625 107.90625 L 234.71875 107.90625 Z M 234.71875 43.507812 " clip-rule="nonzero"/></clipPath><clipPath id="e8fc30279b"><path d="M 255.691406 43.507812 L 283.683594 43.507812 C 295.265625 43.507812 304.660156 52.898438 304.660156 64.480469 L 304.660156 86.933594 C 304.660156 98.515625 295.265625 107.90625 283.683594 107.90625 L 255.691406 107.90625 C 244.109375 107.90625 234.71875 98.515625 234.71875 86.933594 L 234.71875 64.480469 C 234.71875 52.898438 244.109375 43.507812 255.691406 43.507812 Z M 255.691406 43.507812 " clip-rule="nonzero"/></clipPath><clipPath id="88160bda5b"><path d="M 0.71875 0.507812 L 70.761719 0.507812 L 70.761719 64.90625 L 0.71875 64.90625 Z M 0.71875 0.507812 " clip-rule="nonzero"/></clipPath><clipPath id="8711281cd9"><path d="M 21.691406 0.507812 L 49.683594 0.507812 C 61.265625 0.507812 70.660156 9.898438 70.660156 21.480469 L 70.660156 43.933594 C 70.660156 55.515625 61.265625 64.90625 49.683594 64.90625 L 21.691406 64.90625 C 10.109375 64.90625 0.71875 55.515625 0.71875 43.933594 L 0.71875 21.480469 C 0.71875 9.898438 10.109375 0.507812 21.691406 0.507812 Z M 21.691406 0.507812 " clip-rule="nonzero"/></clipPath><clipPath id="925586051c"><rect x="0" width="71" y="0" height="65"/></clipPath><clipPath id="f7f012c89d"><path d="M 156.082031 43.507812 L 226.265625 43.507812 L 226.265625 107.90625 L 156.082031 107.90625 Z M 156.082031 43.507812 " clip-rule="nonzero"/></clipPath><clipPath id="7feeb7c69f"><path d="M 177.054688 43.507812 L 205.046875 43.507812 C 216.628906 43.507812 226.019531 52.898438 226.019531 64.480469 L 226.019531 86.933594 C 226.019531 98.515625 216.628906 107.90625 205.046875 107.90625 L 177.054688 107.90625 C 165.472656 107.90625 156.082031 98.515625 156.082031 86.933594 L 156.082031 64.480469 C 156.082031 52.898438 165.472656 43.507812 177.054688 43.507812 Z M 177.054688 43.507812 " clip-rule="nonzero"/></clipPath><clipPath id="0bf4cf2c42"><path d="M 0.0820312 0.507812 L 70.132812 0.507812 L 70.132812 64.90625 L 0.0820312 64.90625 Z M 0.0820312 0.507812 " clip-rule="nonzero"/></clipPath><clipPath id="9cc8ec1bde"><path d="M 21.054688 0.507812 L 49.046875 0.507812 C 60.628906 0.507812 70.019531 9.898438 70.019531 21.480469 L 70.019531 43.933594 C 70.019531 55.515625 60.628906 64.90625 49.046875 64.90625 L 21.054688 64.90625 C 9.472656 64.90625 0.0820312 55.515625 0.0820312 43.933594 L 0.0820312 21.480469 C 0.0820312 9.898438 9.472656 0.507812 21.054688 0.507812 Z M 21.054688 0.507812 " clip-rule="nonzero"/></clipPath><clipPath id="b242a0dbee"><rect x="0" width="71" y="0" height="65"/></clipPath><clipPath id="708852b21e"><path d="M 151.101562 23.972656 L 310.054688 23.972656 L 310.054688 90.109375 L 151.101562 90.109375 Z M 151.101562 23.972656 " clip-rule="nonzero"/></clipPath><clipPath id="3d225d362b"><path d="M 0.101562 0.972656 L 159 0.972656 L 159 67.109375 L 0.101562 67.109375 Z M 0.101562 0.972656 " clip-rule="nonzero"/></clipPath><clipPath id="f38ff9dc8e"><rect x="0" width="160" y="0" height="68"/></clipPath></defs><g clip-path="url(#882f1e90b9)"><g clip-path="url(#5ba5789397)"><g clip-path="url(#9c13dc8a2e)"><g transform="matrix(1, 0, 0, 1, 51, 76)"><g clip-path="url(#d7589f0375)"><g clip-path="url(#e0156d27ef)"><g clip-path="url(#b75b048b61)"><g clip-path="url(#035c868ffe)"><path fill="#245898" d="M -8.953125 50.25 L 27.886719 -8.863281 L 157.890625 72.15625 L 121.050781 131.269531 Z M -8.953125 50.25 " fill-opacity="1" fill-rule="nonzero"/></g></g></g></g></g></g></g></g><g clip-path="url(#ea08221c7c)"><g clip-path="url(#1d3aae6f74)"><g clip-path="url(#db1c745c0c)"><g transform="matrix(1, 0, 0, 1, 1, 86)"><g clip-path="url(#4aca0e7f5a)"><g clip-path="url(#4bd42ede39)"><g clip-path="url(#ab14b963d7)"><g clip-path="url(#b759d7ecc3)"><path fill="#337dd2" d="M -0.910156 41.089844 L 5.203125 -1.242188 L 75.480469 8.910156 L 69.367188 51.242188 Z M -0.910156 41.089844 " fill-opacity="1" fill-rule="nonzero"/></g></g></g></g></g></g></g></g><g clip-path="url(#1e1e353c6a)"><g clip-path="url(#bc5a5f883b)"><g clip-path="url(#2483224b9c)"><g transform="matrix(1, 0, 0, 1, 35, 31)"><g clip-path="url(#c76a6efdda)"><g clip-path="url(#ad7b2ebff4)"><g clip-path="url(#68f91db5ad)"><g clip-path="url(#e0ad23ab5e)"><path fill="#337dd2" d="M -3.667969 16.160156 L 41.753906 -3.902344 L 73.023438 66.886719 L 27.605469 86.953125 Z M -3.667969 16.160156 " fill-opacity="1" fill-rule="nonzero"/></g></g></g></g></g></g></g></g><g clip-path="url(#ce95903f0f)"><g clip-path="url(#2204cbed5c)"><g clip-path="url(#6fbdbf6e26)"><g transform="matrix(1, 0, 0, 1, 51, 85)"><g clip-path="url(#c13bd92577)"><g clip-path="url(#195dfdb7ec)"><g clip-path="url(#ea2a8c4aab)"><g clip-path="url(#c2ba407cbf)"><path fill="#337dd2" d="M -7.472656 36.878906 L 41.332031 -8.265625 L 61.324219 13.351562 L 12.523438 58.492188 Z M -7.472656 36.878906 " fill-opacity="1" fill-rule="nonzero"/></g></g></g></g></g></g></g></g><g clip-path="url(#b3a7b354fa)"><g clip-path="url(#2b7d780b2d)"><g transform="matrix(1, 0, 0, 1, 110, 0.000000000000013024)"><g clip-path="url(#d8753ce06e)"><g clip-path="url(#3ed5487d0c)"><g clip-path="url(#f71f962ce3)"><path fill="#337dd2" d="M 0.289062 0 L 240.953125 0 L 240.953125 204.003906 L 0.289062 204.003906 Z M 0.289062 0 " fill-opacity="1" fill-rule="nonzero"/></g></g></g></g></g></g><g clip-path="url(#96f7500e37)"><g clip-path="url(#3186b0e856)"><g transform="matrix(1, 0, 0, 1, 125, 20)"><g clip-path="url(#9178dc58b6)"><g clip-path="url(#4860796800)"><g clip-path="url(#953c6e89b4)"><path fill="#255796" d="M 0.425781 0.964844 L 208.464844 0.964844 L 208.464844 118.792969 L 0.425781 118.792969 Z M 0.425781 0.964844 " fill-opacity="1" fill-rule="nonzero"/></g></g></g></g></g></g><g clip-path="url(#6523c67bfa)"><g clip-path="url(#e8fc30279b)"><g transform="matrix(1, 0, 0, 1, 234, 43)"><g clip-path="url(#925586051c)"><g clip-path="url(#88160bda5b)"><g clip-path="url(#8711281cd9)"><path fill="#f2f2f2" d="M 0.71875 0.507812 L 70.652344 0.507812 L 70.652344 64.90625 L 0.71875 64.90625 Z M 0.71875 0.507812 " fill-opacity="1" fill-rule="nonzero"/></g></g></g></g></g></g><g clip-path="url(#f7f012c89d)"><g clip-path="url(#7feeb7c69f)"><g transform="matrix(1, 0, 0, 1, 156, 43)"><g clip-path="url(#b242a0dbee)"><g clip-path="url(#0bf4cf2c42)"><g clip-path="url(#9cc8ec1bde)"><path fill="#f2f2f2" d="M 0.0820312 0.507812 L 70.015625 0.507812 L 70.015625 64.90625 L 0.0820312 64.90625 Z M 0.0820312 0.507812 " fill-opacity="1" fill-rule="nonzero"/></g></g></g></g></g></g><g clip-path="url(#708852b21e)"><g transform="matrix(1, 0, 0, 1, 151, 23)"><g clip-path="url(#f38ff9dc8e)"><g clip-path="url(#3d225d362b)"><path fill="#255796" d="M 0.101562 0.972656 L 158.988281 0.972656 L 158.988281 67.109375 L 0.101562 67.109375 Z M 0.101562 0.972656 " fill-opacity="1" fill-rule="nonzero"/></g></g></g></g></svg>